%TF.GenerationSoftware,KiCad,Pcbnew,8.0.4*%
%TF.CreationDate,2024-07-26T23:15:46-04:00*%
%TF.ProjectId,LearningKiCAD,4c656172-6e69-46e6-974b-694341442e6b,0*%
%TF.SameCoordinates,Original*%
%TF.FileFunction,Legend,Top*%
%TF.FilePolarity,Positive*%
%FSLAX46Y46*%
G04 Gerber Fmt 4.6, Leading zero omitted, Abs format (unit mm)*
G04 Created by KiCad (PCBNEW 8.0.4) date 2024-07-26 23:15:46*
%MOMM*%
%LPD*%
G01*
G04 APERTURE LIST*
%ADD10C,0.150000*%
%ADD11C,0.120000*%
G04 APERTURE END LIST*
D10*
X137934700Y-102314398D02*
X137601367Y-101838207D01*
X137363272Y-102314398D02*
X137363272Y-101314398D01*
X137363272Y-101314398D02*
X137744224Y-101314398D01*
X137744224Y-101314398D02*
X137839462Y-101362017D01*
X137839462Y-101362017D02*
X137887081Y-101409636D01*
X137887081Y-101409636D02*
X137934700Y-101504874D01*
X137934700Y-101504874D02*
X137934700Y-101647731D01*
X137934700Y-101647731D02*
X137887081Y-101742969D01*
X137887081Y-101742969D02*
X137839462Y-101790588D01*
X137839462Y-101790588D02*
X137744224Y-101838207D01*
X137744224Y-101838207D02*
X137363272Y-101838207D01*
X138887081Y-102314398D02*
X138315653Y-102314398D01*
X138601367Y-102314398D02*
X138601367Y-101314398D01*
X138601367Y-101314398D02*
X138506129Y-101457255D01*
X138506129Y-101457255D02*
X138410891Y-101552493D01*
X138410891Y-101552493D02*
X138315653Y-101600112D01*
X159249003Y-108985302D02*
X159249003Y-107985302D01*
X159249003Y-107985302D02*
X159487098Y-107985302D01*
X159487098Y-107985302D02*
X159629955Y-108032921D01*
X159629955Y-108032921D02*
X159725193Y-108128159D01*
X159725193Y-108128159D02*
X159772812Y-108223397D01*
X159772812Y-108223397D02*
X159820431Y-108413873D01*
X159820431Y-108413873D02*
X159820431Y-108556730D01*
X159820431Y-108556730D02*
X159772812Y-108747206D01*
X159772812Y-108747206D02*
X159725193Y-108842444D01*
X159725193Y-108842444D02*
X159629955Y-108937683D01*
X159629955Y-108937683D02*
X159487098Y-108985302D01*
X159487098Y-108985302D02*
X159249003Y-108985302D01*
X160772812Y-108985302D02*
X160201384Y-108985302D01*
X160487098Y-108985302D02*
X160487098Y-107985302D01*
X160487098Y-107985302D02*
X160391860Y-108128159D01*
X160391860Y-108128159D02*
X160296622Y-108223397D01*
X160296622Y-108223397D02*
X160201384Y-108271016D01*
D11*
%TO.C,R1*%
X132791367Y-104579579D02*
X133481367Y-104579579D01*
X133481367Y-102859579D02*
X133481367Y-106299579D01*
X133481367Y-106299579D02*
X142721367Y-106299579D01*
X142721367Y-102859579D02*
X133481367Y-102859579D01*
X142721367Y-106299579D02*
X142721367Y-102859579D01*
X143411367Y-104579579D02*
X142721367Y-104579579D01*
%TO.C,D1*%
X162547098Y-106115483D02*
X162547098Y-103025483D01*
X162547098Y-106115313D02*
G75*
G02*
X156997098Y-104570021I-2560000J1544830D01*
G01*
X156997098Y-104570945D02*
G75*
G02*
X162547098Y-103025653I2990000J462D01*
G01*
X162487098Y-104570483D02*
G75*
G02*
X157487098Y-104570483I-2500000J0D01*
G01*
X157487098Y-104570483D02*
G75*
G02*
X162487098Y-104570483I2500000J0D01*
G01*
%TD*%
M02*
